<svg xmlns="http://www.w3.org/2000/svg" xmlns:xlink="http://www.w3.org/1999/xlink" width="960" height="537.62"><rect width="960" height="537.62" rx="5" ry="5" class="a"/><svg y="0%" x="0%"><circle cx="20" cy="20" r="6" fill="#ff5f58"/><circle cx="40" cy="20" r="6" fill="#ffbd2e"/><circle cx="60" cy="20" r="6" fill="#18c132"/></svg><svg height="477.62" viewBox="0 0 92 47.762" width="920" x="15" xmlns="http://www.w3.org/2000/svg" xmlns:xlink="http://www.w3.org/1999/xlink" y="50"><style>@keyframes l{0%{transform:translateX(0)}5.3%{transform:translateX(-92px)}5.7%{transform:translateX(-184px)}6.2%{transform:translateX(-276px)}6.6%{transform:translateX(-368px)}7.1%{transform:translateX(-460px)}7.5%{transform:translateX(-552px)}8%{transform:translateX(-644px)}8.4%{transform:translateX(-736px)}8.8%{transform:translateX(-828px)}9.3%{transform:translateX(-920px)}9.7%{transform:translateX(-1012px)}10.2%{transform:translateX(-1104px)}10.6%{transform:translateX(-1196px)}11.1%{transform:translateX(-1288px)}11.5%{transform:translateX(-1380px)}11.9%{transform:translateX(-1472px)}12.4%{transform:translateX(-1564px)}12.8%{transform:translateX(-1656px)}13.3%{transform:translateX(-1748px)}13.7%{transform:translateX(-1840px)}14.1%{transform:translateX(-1932px)}14.6%{transform:translateX(-2024px)}15%{transform:translateX(-2116px)}15.5%{transform:translateX(-2208px)}15.9%{transform:translateX(-2300px)}16.4%{transform:translateX(-2392px)}16.8%{transform:translateX(-2484px)}17.2%{transform:translateX(-2576px)}17.7%{transform:translateX(-2668px)}18.1%{transform:translateX(-2760px)}18.6%{transform:translateX(-2852px)}19%{transform:translateX(-2944px)}19.5%{transform:translateX(-3036px)}19.9%{transform:translateX(-3128px)}20.3%{transform:translateX(-3220px)}20.8%{transform:translateX(-3312px)}21.2%{transform:translateX(-3404px)}21.7%{transform:translateX(-3496px)}22.1%{transform:translateX(-3588px)}22.5%{transform:translateX(-3680px)}23%{transform:translateX(-3772px)}23.4%{transform:translateX(-3864px)}23.9%{transform:translateX(-3956px)}24.3%{transform:translateX(-4048px)}24.8%{transform:translateX(-4140px)}25.2%{transform:translateX(-4232px)}25.6%{transform:translateX(-4324px)}26.1%{transform:translateX(-4416px)}26.5%{transform:translateX(-4508px)}27%{transform:translateX(-4600px)}27.4%{transform:translateX(-4692px)}27.9%{transform:translateX(-4784px)}28.3%{transform:translateX(-4876px)}28.7%{transform:translateX(-4968px)}29.2%{transform:translateX(-5060px)}29.6%{transform:translateX(-5152px)}30.1%{transform:translateX(-5244px)}30.5%{transform:translateX(-5336px)}30.9%{transform:translateX(-5428px)}31.4%{transform:translateX(-5520px)}31.8%{transform:translateX(-5612px)}32.3%{transform:translateX(-5704px)}32.7%{transform:translateX(-5796px)}33.2%{transform:translateX(-5888px)}33.6%{transform:translateX(-5980px)}34%{transform:translateX(-6072px)}34.5%{transform:translateX(-6164px)}34.9%{transform:translateX(-6256px)}39.3%{transform:translateX(-6348px)}46.4%{transform:translateX(-6440px)}48%{transform:translateX(-6532px)}49.6%{transform:translateX(-6624px)}58.4%{transform:translateX(-6716px)}63.7%{transform:translateX(-6808px)}72.6%{transform:translateX(-6900px)}76.1%{transform:translateX(-6992px)}78.8%{transform:translateX(-7084px)}85.9%{transform:translateX(-7176px)}to{transform:translateX(-7268px)}}.a{fill:#282d35}.f{font-weight:700}.f,.g,.h,.i{fill:#b9c0cb;white-space:pre}.h,.i{fill:#66c2cd}.i{fill:#a8cc8c}</style><g font-family="Monaco,Consolas,Menlo,'Bitstream Vera Sans Mono','Powerline Symbols',monospace" font-size="1.67"><defs><symbol id="1"><text y="1.67" class="f">$</text><text x="2.004" y="1.67" class="g">claude</text></symbol><symbol id="2"><text y="1.67" class="f">$</text><text x="2.004" y="1.67" class="g">claude</text><text x="9.018" y="1.67" class="g">&quot;our</text></symbol><symbol id="3"><text y="1.67" class="f">$</text><text x="2.004" y="1.67" class="g">claude</text><text x="9.018" y="1.67" class="g">&quot;our</text><text x="14.028" y="1.67" class="g">CI</text></symbol><symbol id="4"><text y="1.67" class="f">$</text><text x="2.004" y="1.67" class="g">claude</text><text x="9.018" y="1.67" class="g">&quot;our</text><text x="14.028" y="1.67" class="g">CI</text><text x="17.034" y="1.67" class="g">cache</text></symbol><symbol id="5"><text y="1.67" class="f">$</text><text x="2.004" y="1.67" class="g">claude</text><text x="9.018" y="1.67" class="g">&quot;our</text><text x="14.028" y="1.67" class="g">CI</text><text x="17.034" y="1.67" class="g">cache</text><text x="23.046" y="1.67" class="g">keeps</text></symbol><symbol id="6"><text y="1.67" class="f">$</text><text x="2.004" y="1.67" class="g">claude</text><text x="9.018" y="1.67" class="g">&quot;our</text><text x="14.028" y="1.67" class="g">CI</text><text x="17.034" y="1.67" class="g">cache</text><text x="23.046" y="1.67" class="g">keeps</text><text x="29.058" y="1.67" class="g">serving</text></symbol><symbol id="7"><text y="1.67" class="f">$</text><text x="2.004" y="1.67" class="g">claude</text><text x="9.018" y="1.67" class="g">&quot;our</text><text x="14.028" y="1.67" class="g">CI</text><text x="17.034" y="1.67" class="g">cache</text><text x="23.046" y="1.67" class="g">keeps</text><text x="29.058" y="1.67" class="g">serving</text><text x="37.074" y="1.67" class="g">stale</text></symbol><symbol id="8"><text y="1.67" class="f">$</text><text x="2.004" y="1.67" class="g">claude</text><text x="9.018" y="1.67" class="g">&quot;our</text><text x="14.028" y="1.67" class="g">CI</text><text x="17.034" y="1.67" class="g">cache</text><text x="23.046" y="1.67" class="g">keeps</text><text x="29.058" y="1.67" class="g">serving</text><text x="37.074" y="1.67" class="g">stale</text><text x="43.086" y="1.67" class="g">dependencies</text></symbol><symbol id="9"><text y="1.67" class="f">$</text><text x="2.004" y="1.67" class="g">claude</text><text x="9.018" y="1.67" class="g">&quot;our</text><text x="14.028" y="1.67" class="g">CI</text><text x="17.034" y="1.67" class="g">cache</text><text x="23.046" y="1.67" class="g">keeps</text><text x="29.058" y="1.67" class="g">serving</text><text x="37.074" y="1.67" class="g">stale</text><text x="43.086" y="1.67" class="g">dependencies</text><text x="56.112" y="1.67" class="g">after</text></symbol><symbol id="10"><text y="1.67" class="f">$</text><text x="2.004" y="1.67" class="g">claude</text><text x="9.018" y="1.67" class="g">&quot;our</text><text x="14.028" y="1.67" class="g">CI</text><text x="17.034" y="1.67" class="g">cache</text><text x="23.046" y="1.67" class="g">keeps</text><text x="29.058" y="1.67" class="g">serving</text><text x="37.074" y="1.67" class="g">stale</text><text x="43.086" y="1.67" class="g">dependencies</text><text x="56.112" y="1.67" class="g">after</text><text x="62.124" y="1.67" class="g">a</text></symbol><symbol id="11"><text y="1.67" class="f">$</text><text x="2.004" y="1.67" class="g">claude</text><text x="9.018" y="1.67" class="g">&quot;our</text><text x="14.028" y="1.67" class="g">CI</text><text x="17.034" y="1.67" class="g">cache</text><text x="23.046" y="1.67" class="g">keeps</text><text x="29.058" y="1.67" class="g">serving</text><text x="37.074" y="1.67" class="g">stale</text><text x="43.086" y="1.67" class="g">dependencies</text><text x="56.112" y="1.67" class="g">after</text><text x="62.124" y="1.67" class="g">a</text><text x="64.128" y="1.67" class="g">bump&quot;</text></symbol><symbol id="12"><text x="2.004" y="1.67" class="g">▸</text><text x="4.008" y="1.67" class="g">lore</text><text x="9.018" y="1.67" class="g">·</text><text x="11.022" y="1.67" class="g">recall</text><text x="18.036" y="1.67" class="g">hook</text><text x="24.048" y="1.67" class="g">(fires</text><text x="31.062" y="1.67" class="g">on</text><text x="34.068" y="1.67" class="g">every</text><text x="40.08" y="1.67" class="g">prompt</text><text x="47.094" y="1.67" class="g">--</text><text x="50.1" y="1.67" class="g">you</text><text x="54.108" y="1.67" class="g">ran</text><text x="58.116" y="1.67" class="g">no</text><text x="61.122" y="1.67" class="g">command)</text></symbol><symbol id="13"><text x="2.004" y="1.67" class="h">Possibly-relevant</text><text x="20.04" y="1.67" class="h">prior</text><text x="26.052" y="1.67" class="h">learnings</text><text x="36.072" y="1.67" class="h">(Read</text><text x="42.084" y="1.67" class="h">a</text><text x="44.088" y="1.67" class="h">file</text><text x="49.098" y="1.67" class="h">only</text><text x="54.108" y="1.67" class="h">if</text><text x="57.114" y="1.67" class="h">it</text><text x="60.12" y="1.67" class="h">applies</text><text x="68.136" y="1.67" class="h">to</text><text x="71.142" y="1.67" class="h">this</text><text x="76.152" y="1.67" class="h">task;</text><text x="82.164" y="1.67" class="h">otherwise</text></symbol><symbol id="14"><text y="1.67" class="h">ignore):</text></symbol><symbol id="15"><text x="2.004" y="1.67" class="h">-</text><text x="4.008" y="1.67" class="h">learnings/ci/cache-key-includes-lockfile-hash.md</text><text x="53.106" y="1.67" class="h">-</text><text x="55.11" y="1.67" class="h">CI</text><text x="58.116" y="1.67" class="h">cache</text><text x="64.128" y="1.67" class="h">key</text><text x="68.136" y="1.67" class="h">must</text><text x="73.146" y="1.67" class="h">include</text><text x="81.162" y="1.67" class="h">the</text><text x="85.17" y="1.67" class="h">lockfil</text></symbol><symbol id="16"><text y="1.67" class="h">e</text><text x="2.004" y="1.67" class="h">hash,</text><text x="8.016" y="1.67" class="h">or</text><text x="11.022" y="1.67" class="h">builds</text><text x="18.036" y="1.67" class="h">use</text><text x="22.044" y="1.67" class="h">stale</text><text x="28.056" y="1.67" class="h">deps</text></symbol><symbol id="17"><text y="1.67" class="i">●</text><text x="2.004" y="1.67" class="g">Keying</text><text x="9.018" y="1.67" class="g">the</text><text x="13.026" y="1.67" class="g">CI</text><text x="16.032" y="1.67" class="g">cache</text><text x="22.044" y="1.67" class="g">on</text><text x="25.05" y="1.67" class="g">a</text><text x="27.054" y="1.67" class="g">hash</text><text x="32.064" y="1.67" class="g">of</text><text x="35.07" y="1.67" class="g">the</text><text x="39.078" y="1.67" class="g">lockfile</text><text x="48.096" y="1.67" class="g">so</text><text x="51.102" y="1.67" class="g">a</text><text x="53.106" y="1.67" class="g">dep</text><text x="57.114" y="1.67" class="g">bump</text><text x="62.124" y="1.67" class="g">busts</text><text x="68.136" y="1.67" class="g">it.</text></symbol><symbol id="18"><text x="2.004" y="1.67" class="g">✎</text><text x="4.008" y="1.67" class="g">edit</text><text x="10.02" y="1.67" class="g">.github/workflows/ci.yml</text></symbol><symbol id="19"><text x="2.004" y="1.67" class="g">▸</text><text x="4.008" y="1.67" class="g">lore</text><text x="9.018" y="1.67" class="g">·</text><text x="11.022" y="1.67" class="g">capture</text><text x="19.038" y="1.67" class="g">check</text><text x="26.052" y="1.67" class="g">(fires</text><text x="33.066" y="1.67" class="g">when</text><text x="38.076" y="1.67" class="g">the</text><text x="42.084" y="1.67" class="g">turn</text><text x="47.094" y="1.67" class="g">ends)</text></symbol><symbol id="20"><text x="2.004" y="1.67" class="g">LORE</text><text x="7.014" y="1.67" class="g">CHECK</text><text x="13.026" y="1.67" class="g">--</text><text x="16.032" y="1.67" class="g">required</text><text x="25.05" y="1.67" class="g">before</text><text x="32.064" y="1.67" class="g">you</text><text x="36.072" y="1.67" class="g">end</text><text x="40.08" y="1.67" class="g">this</text><text x="45.09" y="1.67" class="g">turn.</text></symbol><symbol id="21"><text x="2.004" y="1.67" class="g">…</text><text x="4.008" y="1.67" class="g">(the</text><text x="9.018" y="1.67" class="g">full</text><text x="14.028" y="1.67" class="g">non-obvious-AND-reusable</text><text x="39.078" y="1.67" class="g">gate</text><text x="44.088" y="1.67" class="g">continues)</text></symbol><symbol id="22"><text y="1.67" class="i">●</text><text x="2.004" y="1.67" class="f">Lore</text><text x="7.014" y="1.67" class="f">—</text><text x="9.018" y="1.67" class="f">updated:</text><text x="18.036" y="1.67" class="g">learnings/ci/cache-key-includes-lockfile-hash.md</text></symbol><symbol id="a"><path fill="transparent" d="M0 0h92v23H0z"/></symbol><symbol id="b"><path fill="#6f7683" d="M0 0h1.102v2.171H0z"/></symbol></defs><path class="a" d="M0 0h92v47.762H0z"/><g style="animation-duration:11.31s;animation-iteration-count:infinite;animation-name:l;animation-timing-function:steps(1,end)"><svg width="7360"><svg><use xlink:href="#a"/><use xlink:href="#b" x="-.004"/></svg><svg x="92"><use xlink:href="#a"/><use xlink:href="#b" x="1.996"/><text y="1.67" class="f">$</text></svg><svg x="184"><use xlink:href="#a"/><use xlink:href="#b" x="2.996"/><text y="1.67" class="f">$</text><text x="2.004" y="1.67" class="g">c</text></svg><svg x="276"><use xlink:href="#a"/><use xlink:href="#b" x="3.996"/><text y="1.67" class="f">$</text><text x="2.004" y="1.67" class="g">cl</text></svg><svg x="368"><use xlink:href="#a"/><use xlink:href="#b" x="4.996"/><text y="1.67" class="f">$</text><text x="2.004" y="1.67" class="g">cla</text></svg><svg x="460"><use xlink:href="#a"/><use xlink:href="#b" x="5.996"/><text y="1.67" class="f">$</text><text x="2.004" y="1.67" class="g">clau</text></svg><svg x="552"><use xlink:href="#a"/><use xlink:href="#b" x="6.996"/><text y="1.67" class="f">$</text><text x="2.004" y="1.67" class="g">claud</text></svg><svg x="644"><use xlink:href="#a"/><use xlink:href="#b" x="7.996"/><use xlink:href="#1"/></svg><svg x="736"><use xlink:href="#a"/><use xlink:href="#b" x="8.996"/><use xlink:href="#1"/></svg><svg x="828"><use xlink:href="#a"/><use xlink:href="#b" x="9.996"/><text y="1.67" class="f">$</text><text x="2.004" y="1.67" class="g">claude</text><text x="9.018" y="1.67" class="g">&quot;</text></svg><svg x="920"><use xlink:href="#a"/><use xlink:href="#b" x="10.996"/><text y="1.67" class="f">$</text><text x="2.004" y="1.67" class="g">claude</text><text x="9.018" y="1.67" class="g">&quot;o</text></svg><svg x="1012"><use xlink:href="#a"/><use xlink:href="#b" x="11.996"/><text y="1.67" class="f">$</text><text x="2.004" y="1.67" class="g">claude</text><text x="9.018" y="1.67" class="g">&quot;ou</text></svg><svg x="1104"><use xlink:href="#a"/><use xlink:href="#b" x="12.996"/><use xlink:href="#2"/></svg><svg x="1196"><use xlink:href="#a"/><use xlink:href="#b" x="13.996"/><use xlink:href="#2"/></svg><svg x="1288"><use xlink:href="#a"/><use xlink:href="#b" x="14.996"/><text y="1.67" class="f">$</text><text x="2.004" y="1.67" class="g">claude</text><text x="9.018" y="1.67" class="g">&quot;our</text><text x="14.028" y="1.67" class="g">C</text></svg><svg x="1380"><use xlink:href="#a"/><use xlink:href="#b" x="15.996"/><use xlink:href="#3"/></svg><svg x="1472"><use xlink:href="#a"/><use xlink:href="#b" x="16.996"/><use xlink:href="#3"/></svg><svg x="1564"><use xlink:href="#a"/><use xlink:href="#b" x="17.996"/><text y="1.67" class="f">$</text><text x="2.004" y="1.67" class="g">claude</text><text x="9.018" y="1.67" class="g">&quot;our</text><text x="14.028" y="1.67" class="g">CI</text><text x="17.034" y="1.67" class="g">c</text></svg><svg x="1656"><use xlink:href="#a"/><use xlink:href="#b" x="18.996"/><text y="1.67" class="f">$</text><text x="2.004" y="1.67" class="g">claude</text><text x="9.018" y="1.67" class="g">&quot;our</text><text x="14.028" y="1.67" class="g">CI</text><text x="17.034" y="1.67" class="g">ca</text></svg><svg x="1748"><use xlink:href="#a"/><use xlink:href="#b" x="19.996"/><text y="1.67" class="f">$</text><text x="2.004" y="1.67" class="g">claude</text><text x="9.018" y="1.67" class="g">&quot;our</text><text x="14.028" y="1.67" class="g">CI</text><text x="17.034" y="1.67" class="g">cac</text></svg><svg x="1840"><use xlink:href="#a"/><use xlink:href="#b" x="20.996"/><text y="1.67" class="f">$</text><text x="2.004" y="1.67" class="g">claude</text><text x="9.018" y="1.67" class="g">&quot;our</text><text x="14.028" y="1.67" class="g">CI</text><text x="17.034" y="1.67" class="g">cach</text></svg><svg x="1932"><use xlink:href="#a"/><use xlink:href="#b" x="21.996"/><use xlink:href="#4"/></svg><svg x="2024"><use xlink:href="#a"/><use xlink:href="#b" x="22.996"/><use xlink:href="#4"/></svg><svg x="2116"><use xlink:href="#a"/><use xlink:href="#b" x="23.996"/><text y="1.67" class="f">$</text><text x="2.004" y="1.67" class="g">claude</text><text x="9.018" y="1.67" class="g">&quot;our</text><text x="14.028" y="1.67" class="g">CI</text><text x="17.034" y="1.67" class="g">cache</text><text x="23.046" y="1.67" class="g">k</text></svg><svg x="2208"><use xlink:href="#a"/><use xlink:href="#b" x="24.996"/><text y="1.67" class="f">$</text><text x="2.004" y="1.67" class="g">claude</text><text x="9.018" y="1.67" class="g">&quot;our</text><text x="14.028" y="1.67" class="g">CI</text><text x="17.034" y="1.67" class="g">cache</text><text x="23.046" y="1.67" class="g">ke</text></svg><svg x="2300"><use xlink:href="#a"/><use xlink:href="#b" x="25.996"/><text y="1.67" class="f">$</text><text x="2.004" y="1.67" class="g">claude</text><text x="9.018" y="1.67" class="g">&quot;our</text><text x="14.028" y="1.67" class="g">CI</text><text x="17.034" y="1.67" class="g">cache</text><text x="23.046" y="1.67" class="g">kee</text></svg><svg x="2392"><use xlink:href="#a"/><use xlink:href="#b" x="26.996"/><text y="1.67" class="f">$</text><text x="2.004" y="1.67" class="g">claude</text><text x="9.018" y="1.67" class="g">&quot;our</text><text x="14.028" y="1.67" class="g">CI</text><text x="17.034" y="1.67" class="g">cache</text><text x="23.046" y="1.67" class="g">keep</text></svg><svg x="2484"><use xlink:href="#a"/><use xlink:href="#b" x="27.996"/><use xlink:href="#5"/></svg><svg x="2576"><use xlink:href="#a"/><use xlink:href="#b" x="28.996"/><use xlink:href="#5"/></svg><svg x="2668"><use xlink:href="#a"/><use xlink:href="#b" x="29.996"/><text y="1.67" class="f">$</text><text x="2.004" y="1.67" class="g">claude</text><text x="9.018" y="1.67" class="g">&quot;our</text><text x="14.028" y="1.67" class="g">CI</text><text x="17.034" y="1.67" class="g">cache</text><text x="23.046" y="1.67" class="g">keeps</text><text x="29.058" y="1.67" class="g">s</text></svg><svg x="2760"><use xlink:href="#a"/><use xlink:href="#b" x="30.996"/><text y="1.67" class="f">$</text><text x="2.004" y="1.67" class="g">claude</text><text x="9.018" y="1.67" class="g">&quot;our</text><text x="14.028" y="1.67" class="g">CI</text><text x="17.034" y="1.67" class="g">cache</text><text x="23.046" y="1.67" class="g">keeps</text><text x="29.058" y="1.67" class="g">se</text></svg><svg x="2852"><use xlink:href="#a"/><use xlink:href="#b" x="31.996"/><text y="1.67" class="f">$</text><text x="2.004" y="1.67" class="g">claude</text><text x="9.018" y="1.67" class="g">&quot;our</text><text x="14.028" y="1.67" class="g">CI</text><text x="17.034" y="1.67" class="g">cache</text><text x="23.046" y="1.67" class="g">keeps</text><text x="29.058" y="1.67" class="g">ser</text></svg><svg x="2944"><use xlink:href="#a"/><use xlink:href="#b" x="32.996"/><text y="1.67" class="f">$</text><text x="2.004" y="1.67" class="g">claude</text><text x="9.018" y="1.67" class="g">&quot;our</text><text x="14.028" y="1.67" class="g">CI</text><text x="17.034" y="1.67" class="g">cache</text><text x="23.046" y="1.67" class="g">keeps</text><text x="29.058" y="1.67" class="g">serv</text></svg><svg x="3036"><use xlink:href="#a"/><use xlink:href="#b" x="33.996"/><text y="1.67" class="f">$</text><text x="2.004" y="1.67" class="g">claude</text><text x="9.018" y="1.67" class="g">&quot;our</text><text x="14.028" y="1.67" class="g">CI</text><text x="17.034" y="1.67" class="g">cache</text><text x="23.046" y="1.67" class="g">keeps</text><text x="29.058" y="1.67" class="g">servi</text></svg><svg x="3128"><use xlink:href="#a"/><use xlink:href="#b" x="34.996"/><text y="1.67" class="f">$</text><text x="2.004" y="1.67" class="g">claude</text><text x="9.018" y="1.67" class="g">&quot;our</text><text x="14.028" y="1.67" class="g">CI</text><text x="17.034" y="1.67" class="g">cache</text><text x="23.046" y="1.67" class="g">keeps</text><text x="29.058" y="1.67" class="g">servin</text></svg><svg x="3220"><use xlink:href="#a"/><use xlink:href="#b" x="35.996"/><use xlink:href="#6"/></svg><svg x="3312"><use xlink:href="#a"/><use xlink:href="#b" x="36.996"/><use xlink:href="#6"/></svg><svg x="3404"><use xlink:href="#a"/><use xlink:href="#b" x="37.996"/><text y="1.67" class="f">$</text><text x="2.004" y="1.67" class="g">claude</text><text x="9.018" y="1.67" class="g">&quot;our</text><text x="14.028" y="1.67" class="g">CI</text><text x="17.034" y="1.67" class="g">cache</text><text x="23.046" y="1.67" class="g">keeps</text><text x="29.058" y="1.67" class="g">serving</text><text x="37.074" y="1.67" class="g">s</text></svg><svg x="3496"><use xlink:href="#a"/><use xlink:href="#b" x="38.996"/><text y="1.67" class="f">$</text><text x="2.004" y="1.67" class="g">claude</text><text x="9.018" y="1.67" class="g">&quot;our</text><text x="14.028" y="1.67" class="g">CI</text><text x="17.034" y="1.67" class="g">cache</text><text x="23.046" y="1.67" class="g">keeps</text><text x="29.058" y="1.67" class="g">serving</text><text x="37.074" y="1.67" class="g">st</text></svg><svg x="3588"><use xlink:href="#a"/><use xlink:href="#b" x="39.996"/><text y="1.67" class="f">$</text><text x="2.004" y="1.67" class="g">claude</text><text x="9.018" y="1.67" class="g">&quot;our</text><text x="14.028" y="1.67" class="g">CI</text><text x="17.034" y="1.67" class="g">cache</text><text x="23.046" y="1.67" class="g">keeps</text><text x="29.058" y="1.67" class="g">serving</text><text x="37.074" y="1.67" class="g">sta</text></svg><svg x="3680"><use xlink:href="#a"/><use xlink:href="#b" x="40.996"/><text y="1.67" class="f">$</text><text x="2.004" y="1.67" class="g">claude</text><text x="9.018" y="1.67" class="g">&quot;our</text><text x="14.028" y="1.67" class="g">CI</text><text x="17.034" y="1.67" class="g">cache</text><text x="23.046" y="1.67" class="g">keeps</text><text x="29.058" y="1.67" class="g">serving</text><text x="37.074" y="1.67" class="g">stal</text></svg><svg x="3772"><use xlink:href="#a"/><use xlink:href="#b" x="41.996"/><use xlink:href="#7"/></svg><svg x="3864"><use xlink:href="#a"/><use xlink:href="#b" x="42.996"/><use xlink:href="#7"/></svg><svg x="3956"><use xlink:href="#a"/><use xlink:href="#b" x="43.996"/><text y="1.67" class="f">$</text><text x="2.004" y="1.67" class="g">claude</text><text x="9.018" y="1.67" class="g">&quot;our</text><text x="14.028" y="1.67" class="g">CI</text><text x="17.034" y="1.67" class="g">cache</text><text x="23.046" y="1.67" class="g">keeps</text><text x="29.058" y="1.67" class="g">serving</text><text x="37.074" y="1.67" class="g">stale</text><text x="43.086" y="1.67" class="g">d</text></svg><svg x="4048"><use xlink:href="#a"/><use xlink:href="#b" x="44.996"/><text y="1.67" class="f">$</text><text x="2.004" y="1.67" class="g">claude</text><text x="9.018" y="1.67" class="g">&quot;our</text><text x="14.028" y="1.67" class="g">CI</text><text x="17.034" y="1.67" class="g">cache</text><text x="23.046" y="1.67" class="g">keeps</text><text x="29.058" y="1.67" class="g">serving</text><text x="37.074" y="1.67" class="g">stale</text><text x="43.086" y="1.67" class="g">de</text></svg><svg x="4140"><use xlink:href="#a"/><use xlink:href="#b" x="45.996"/><text y="1.67" class="f">$</text><text x="2.004" y="1.67" class="g">claude</text><text x="9.018" y="1.67" class="g">&quot;our</text><text x="14.028" y="1.67" class="g">CI</text><text x="17.034" y="1.67" class="g">cache</text><text x="23.046" y="1.67" class="g">keeps</text><text x="29.058" y="1.67" class="g">serving</text><text x="37.074" y="1.67" class="g">stale</text><text x="43.086" y="1.67" class="g">dep</text></svg><svg x="4232"><use xlink:href="#a"/><use xlink:href="#b" x="46.996"/><text y="1.67" class="f">$</text><text x="2.004" y="1.67" class="g">claude</text><text x="9.018" y="1.67" class="g">&quot;our</text><text x="14.028" y="1.67" class="g">CI</text><text x="17.034" y="1.67" class="g">cache</text><text x="23.046" y="1.67" class="g">keeps</text><text x="29.058" y="1.67" class="g">serving</text><text x="37.074" y="1.67" class="g">stale</text><text x="43.086" y="1.67" class="g">depe</text></svg><svg x="4324"><use xlink:href="#a"/><use xlink:href="#b" x="47.996"/><text y="1.67" class="f">$</text><text x="2.004" y="1.67" class="g">claude</text><text x="9.018" y="1.67" class="g">&quot;our</text><text x="14.028" y="1.67" class="g">CI</text><text x="17.034" y="1.67" class="g">cache</text><text x="23.046" y="1.67" class="g">keeps</text><text x="29.058" y="1.67" class="g">serving</text><text x="37.074" y="1.67" class="g">stale</text><text x="43.086" y="1.67" class="g">depen</text></svg><svg x="4416"><use xlink:href="#a"/><use xlink:href="#b" x="48.996"/><text y="1.67" class="f">$</text><text x="2.004" y="1.67" class="g">claude</text><text x="9.018" y="1.67" class="g">&quot;our</text><text x="14.028" y="1.67" class="g">CI</text><text x="17.034" y="1.67" class="g">cache</text><text x="23.046" y="1.67" class="g">keeps</text><text x="29.058" y="1.67" class="g">serving</text><text x="37.074" y="1.67" class="g">stale</text><text x="43.086" y="1.67" class="g">depend</text></svg><svg x="4508"><use xlink:href="#a"/><use xlink:href="#b" x="49.996"/><text y="1.67" class="f">$</text><text x="2.004" y="1.67" class="g">claude</text><text x="9.018" y="1.67" class="g">&quot;our</text><text x="14.028" y="1.67" class="g">CI</text><text x="17.034" y="1.67" class="g">cache</text><text x="23.046" y="1.67" class="g">keeps</text><text x="29.058" y="1.67" class="g">serving</text><text x="37.074" y="1.67" class="g">stale</text><text x="43.086" y="1.67" class="g">depende</text></svg><svg x="4600"><use xlink:href="#a"/><use xlink:href="#b" x="50.996"/><text y="1.67" class="f">$</text><text x="2.004" y="1.67" class="g">claude</text><text x="9.018" y="1.67" class="g">&quot;our</text><text x="14.028" y="1.67" class="g">CI</text><text x="17.034" y="1.67" class="g">cache</text><text x="23.046" y="1.67" class="g">keeps</text><text x="29.058" y="1.67" class="g">serving</text><text x="37.074" y="1.67" class="g">stale</text><text x="43.086" y="1.67" class="g">dependen</text></svg><svg x="4692"><use xlink:href="#a"/><use xlink:href="#b" x="51.996"/><text y="1.67" class="f">$</text><text x="2.004" y="1.67" class="g">claude</text><text x="9.018" y="1.67" class="g">&quot;our</text><text x="14.028" y="1.67" class="g">CI</text><text x="17.034" y="1.67" class="g">cache</text><text x="23.046" y="1.67" class="g">keeps</text><text x="29.058" y="1.67" class="g">serving</text><text x="37.074" y="1.67" class="g">stale</text><text x="43.086" y="1.67" class="g">dependenc</text></svg><svg x="4784"><use xlink:href="#a"/><use xlink:href="#b" x="52.996"/><text y="1.67" class="f">$</text><text x="2.004" y="1.67" class="g">claude</text><text x="9.018" y="1.67" class="g">&quot;our</text><text x="14.028" y="1.67" class="g">CI</text><text x="17.034" y="1.67" class="g">cache</text><text x="23.046" y="1.67" class="g">keeps</text><text x="29.058" y="1.67" class="g">serving</text><text x="37.074" y="1.67" class="g">stale</text><text x="43.086" y="1.67" class="g">dependenci</text></svg><svg x="4876"><use xlink:href="#a"/><use xlink:href="#b" x="53.996"/><text y="1.67" class="f">$</text><text x="2.004" y="1.67" class="g">claude</text><text x="9.018" y="1.67" class="g">&quot;our</text><text x="14.028" y="1.67" class="g">CI</text><text x="17.034" y="1.67" class="g">cache</text><text x="23.046" y="1.67" class="g">keeps</text><text x="29.058" y="1.67" class="g">serving</text><text x="37.074" y="1.67" class="g">stale</text><text x="43.086" y="1.67" class="g">dependencie</text></svg><svg x="4968"><use xlink:href="#a"/><use xlink:href="#b" x="54.996"/><use xlink:href="#8"/></svg><svg x="5060"><use xlink:href="#a"/><use xlink:href="#b" x="55.996"/><use xlink:href="#8"/></svg><svg x="5152"><use xlink:href="#a"/><use xlink:href="#b" x="56.996"/><text y="1.67" class="f">$</text><text x="2.004" y="1.67" class="g">claude</text><text x="9.018" y="1.67" class="g">&quot;our</text><text x="14.028" y="1.67" class="g">CI</text><text x="17.034" y="1.67" class="g">cache</text><text x="23.046" y="1.67" class="g">keeps</text><text x="29.058" y="1.67" class="g">serving</text><text x="37.074" y="1.67" class="g">stale</text><text x="43.086" y="1.67" class="g">dependencies</text><text x="56.112" y="1.67" class="g">a</text></svg><svg x="5244"><use xlink:href="#a"/><use xlink:href="#b" x="57.996"/><text y="1.67" class="f">$</text><text x="2.004" y="1.67" class="g">claude</text><text x="9.018" y="1.67" class="g">&quot;our</text><text x="14.028" y="1.67" class="g">CI</text><text x="17.034" y="1.67" class="g">cache</text><text x="23.046" y="1.67" class="g">keeps</text><text x="29.058" y="1.67" class="g">serving</text><text x="37.074" y="1.67" class="g">stale</text><text x="43.086" y="1.67" class="g">dependencies</text><text x="56.112" y="1.67" class="g">af</text></svg><svg x="5336"><use xlink:href="#a"/><use xlink:href="#b" x="58.996"/><text y="1.67" class="f">$</text><text x="2.004" y="1.67" class="g">claude</text><text x="9.018" y="1.67" class="g">&quot;our</text><text x="14.028" y="1.67" class="g">CI</text><text x="17.034" y="1.67" class="g">cache</text><text x="23.046" y="1.67" class="g">keeps</text><text x="29.058" y="1.67" class="g">serving</text><text x="37.074" y="1.67" class="g">stale</text><text x="43.086" y="1.67" class="g">dependencies</text><text x="56.112" y="1.67" class="g">aft</text></svg><svg x="5428"><use xlink:href="#a"/><use xlink:href="#b" x="59.996"/><text y="1.67" class="f">$</text><text x="2.004" y="1.67" class="g">claude</text><text x="9.018" y="1.67" class="g">&quot;our</text><text x="14.028" y="1.67" class="g">CI</text><text x="17.034" y="1.67" class="g">cache</text><text x="23.046" y="1.67" class="g">keeps</text><text x="29.058" y="1.67" class="g">serving</text><text x="37.074" y="1.67" class="g">stale</text><text x="43.086" y="1.67" class="g">dependencies</text><text x="56.112" y="1.67" class="g">afte</text></svg><svg x="5520"><use xlink:href="#a"/><use xlink:href="#b" x="60.996"/><use xlink:href="#9"/></svg><svg x="5612"><use xlink:href="#a"/><use xlink:href="#b" x="61.996"/><use xlink:href="#9"/></svg><svg x="5704"><use xlink:href="#a"/><use xlink:href="#b" x="62.996"/><use xlink:href="#10"/></svg><svg x="5796"><use xlink:href="#a"/><use xlink:href="#b" x="63.996"/><use xlink:href="#10"/></svg><svg x="5888"><use xlink:href="#a"/><use xlink:href="#b" x="64.996"/><text y="1.67" class="f">$</text><text x="2.004" y="1.67" class="g">claude</text><text x="9.018" y="1.67" class="g">&quot;our</text><text x="14.028" y="1.67" class="g">CI</text><text x="17.034" y="1.67" class="g">cache</text><text x="23.046" y="1.67" class="g">keeps</text><text x="29.058" y="1.67" class="g">serving</text><text x="37.074" y="1.67" class="g">stale</text><text x="43.086" y="1.67" class="g">dependencies</text><text x="56.112" y="1.67" class="g">after</text><text x="62.124" y="1.67" class="g">a</text><text x="64.128" y="1.67" class="g">b</text></svg><svg x="5980"><use xlink:href="#a"/><use xlink:href="#b" x="65.996"/><text y="1.67" class="f">$</text><text x="2.004" y="1.67" class="g">claude</text><text x="9.018" y="1.67" class="g">&quot;our</text><text x="14.028" y="1.67" class="g">CI</text><text x="17.034" y="1.67" class="g">cache</text><text x="23.046" y="1.67" class="g">keeps</text><text x="29.058" y="1.67" class="g">serving</text><text x="37.074" y="1.67" class="g">stale</text><text x="43.086" y="1.67" class="g">dependencies</text><text x="56.112" y="1.67" class="g">after</text><text x="62.124" y="1.67" class="g">a</text><text x="64.128" y="1.67" class="g">bu</text></svg><svg x="6072"><use xlink:href="#a"/><use xlink:href="#b" x="66.996"/><text y="1.67" class="f">$</text><text x="2.004" y="1.67" class="g">claude</text><text x="9.018" y="1.67" class="g">&quot;our</text><text x="14.028" y="1.67" class="g">CI</text><text x="17.034" y="1.67" class="g">cache</text><text x="23.046" y="1.67" class="g">keeps</text><text x="29.058" y="1.67" class="g">serving</text><text x="37.074" y="1.67" class="g">stale</text><text x="43.086" y="1.67" class="g">dependencies</text><text x="56.112" y="1.67" class="g">after</text><text x="62.124" y="1.67" class="g">a</text><text x="64.128" y="1.67" class="g">bum</text></svg><svg x="6164"><use xlink:href="#a"/><use xlink:href="#b" x="67.996"/><text y="1.67" class="f">$</text><text x="2.004" y="1.67" class="g">claude</text><text x="9.018" y="1.67" class="g">&quot;our</text><text x="14.028" y="1.67" class="g">CI</text><text x="17.034" y="1.67" class="g">cache</text><text x="23.046" y="1.67" class="g">keeps</text><text x="29.058" y="1.67" class="g">serving</text><text x="37.074" y="1.67" class="g">stale</text><text x="43.086" y="1.67" class="g">dependencies</text><text x="56.112" y="1.67" class="g">after</text><text x="62.124" y="1.67" class="g">a</text><text x="64.128" y="1.67" class="g">bump</text></svg><svg x="6256"><use xlink:href="#a"/><use xlink:href="#b" x="68.996"/><use xlink:href="#11"/></svg><svg x="6348"><use xlink:href="#a"/><use xlink:href="#b" x="-.004" y="2.146"/><use xlink:href="#11"/></svg><svg x="6440"><use xlink:href="#a"/><use xlink:href="#b" x="-.004" y="4.317"/><use xlink:href="#11"/><use xlink:href="#12" y="2.171"/></svg><svg x="6532"><use xlink:href="#a"/><use xlink:href="#b" x="-.004" y="8.659"/><use xlink:href="#11"/><use xlink:href="#12" y="2.171"/><use xlink:href="#13" y="4.342"/><use xlink:href="#14" y="6.513"/></svg><svg x="6624"><use xlink:href="#a"/><use xlink:href="#b" x="-.004" y="13.001"/><use xlink:href="#11"/><use xlink:href="#12" y="2.171"/><use xlink:href="#13" y="4.342"/><use xlink:href="#14" y="6.513"/><use xlink:href="#15" y="8.684"/><use xlink:href="#16" y="10.855"/></svg><svg x="6716"><use xlink:href="#a"/><use xlink:href="#b" x="-.004" y="17.343"/><use xlink:href="#11"/><use xlink:href="#12" y="2.171"/><use xlink:href="#13" y="4.342"/><use xlink:href="#14" y="6.513"/><use xlink:href="#15" y="8.684"/><use xlink:href="#16" y="10.855"/><use xlink:href="#17" y="15.197"/></svg><svg x="6808"><use xlink:href="#a"/><use xlink:href="#b" x="-.004" y="19.514"/><use xlink:href="#11"/><use xlink:href="#12" y="2.171"/><use xlink:href="#13" y="4.342"/><use xlink:href="#14" y="6.513"/><use xlink:href="#15" y="8.684"/><use xlink:href="#16" y="10.855"/><use xlink:href="#17" y="15.197"/><use xlink:href="#18" y="17.368"/></svg><svg x="6900"><use xlink:href="#a"/><use xlink:href="#b" x="-.004" y="23.856"/><use xlink:href="#11"/><use xlink:href="#12" y="2.171"/><use xlink:href="#13" y="4.342"/><use xlink:href="#14" y="6.513"/><use xlink:href="#15" y="8.684"/><use xlink:href="#16" y="10.855"/><use xlink:href="#17" y="15.197"/><use xlink:href="#18" y="17.368"/><use xlink:href="#19" y="21.71"/></svg><svg x="6992"><use xlink:href="#a"/><use xlink:href="#b" x="-.004" y="26.027"/><use xlink:href="#11"/><use xlink:href="#12" y="2.171"/><use xlink:href="#13" y="4.342"/><use xlink:href="#14" y="6.513"/><use xlink:href="#15" y="8.684"/><use xlink:href="#16" y="10.855"/><use xlink:href="#17" y="15.197"/><use xlink:href="#18" y="17.368"/><use xlink:href="#19" y="21.71"/><use xlink:href="#20" y="23.881"/></svg><svg x="7084"><use xlink:href="#a"/><use xlink:href="#b" x="-.004" y="28.198"/><use xlink:href="#11"/><use xlink:href="#12" y="2.171"/><use xlink:href="#13" y="4.342"/><use xlink:href="#14" y="6.513"/><use xlink:href="#15" y="8.684"/><use xlink:href="#16" y="10.855"/><use xlink:href="#17" y="15.197"/><use xlink:href="#18" y="17.368"/><use xlink:href="#19" y="21.71"/><use xlink:href="#20" y="23.881"/><use xlink:href="#21" y="26.052"/></svg><svg x="7176"><use xlink:href="#a"/><use xlink:href="#b" x="-.004" y="32.54"/><use xlink:href="#11"/><use xlink:href="#12" y="2.171"/><use xlink:href="#13" y="4.342"/><use xlink:href="#14" y="6.513"/><use xlink:href="#15" y="8.684"/><use xlink:href="#16" y="10.855"/><use xlink:href="#17" y="15.197"/><use xlink:href="#18" y="17.368"/><use xlink:href="#19" y="21.71"/><use xlink:href="#20" y="23.881"/><use xlink:href="#21" y="26.052"/><use xlink:href="#22" y="30.394"/></svg><svg x="7268"><use xlink:href="#a"/><use xlink:href="#b" x="-.004" y="32.54"/><use xlink:href="#11"/><use xlink:href="#12" y="2.171"/><use xlink:href="#13" y="4.342"/><use xlink:href="#14" y="6.513"/><use xlink:href="#15" y="8.684"/><use xlink:href="#16" y="10.855"/><use xlink:href="#17" y="15.197"/><use xlink:href="#18" y="17.368"/><use xlink:href="#19" y="21.71"/><use xlink:href="#20" y="23.881"/><use xlink:href="#21" y="26.052"/><use xlink:href="#22" y="30.394"/></svg></svg></g></g></svg></svg>